<svg width="253" height="270" viewBox="0 0 253 270" fill="none" xmlns="http://www.w3.org/2000/svg">
<g clip-path="url(#clip0)">
<path d="M33.8369 130.016C29.6966 188.163 68.7928 238.264 121.161 241.92C173.528 245.575 219.337 201.401 223.478 143.253C227.618 85.1059 188.522 35.0047 136.154 31.3492C83.7861 27.6937 37.9772 71.8681 33.8369 130.016Z" fill="#6B705D"/>
<path d="M99.1933 244.787L103.441 245.914L105.64 246.567C106.367 246.757 107.071 246.952 107.712 247.148C110.27 247.958 112.073 248.623 111.219 248.995L112.176 249.844C108.165 249.16 104.215 248.157 100.365 246.845C96.5347 245.404 94.5228 244.238 99.1933 244.787Z" fill="#6B705D"/>
<path d="M99.5863 239.665C103.496 241.301 100.333 240.634 99.4832 240.794C97.6073 240.196 95.7837 239.436 93.9626 238.689C93.2268 238.115 94.0429 238.199 95.3361 238.527C95.9814 238.684 96.7401 238.905 97.4868 239.128L99.5863 239.665Z" fill="white"/>
<path d="M105.029 230.309L103.627 229.595C105.184 230.377 106.825 230.979 108.519 231.39C108.507 231.679 107.792 231.772 106.71 231.672C106.088 231.608 105.47 231.506 104.86 231.366C104.158 231.163 103.467 230.919 102.794 230.635C103.541 230.46 106.343 231.304 105.029 230.309Z" fill="#6B705D"/>
<path d="M182.979 225.904C182.956 223.795 177.116 225.316 170.556 227.255C170.801 226.032 171.051 224.834 171.246 223.61C172.679 223.117 174.056 222.475 175.355 221.695C176.102 221.234 176.863 220.72 177.642 220.177C178.464 219.633 179.255 219.046 180.014 218.417C183.181 215.81 186.176 213.002 188.98 210.01C190.641 207.559 183.275 214.325 188.172 208.644C189.045 208.305 189.137 209.242 190.416 208.243C192.466 205.52 192.342 204.378 193.059 202.693C193.272 202.213 193.511 201.746 193.777 201.293C194.064 200.72 194.435 200.08 194.917 199.316C195.944 197.849 197.348 195.765 199.45 192.82C200.673 191.683 201.935 190.55 203.148 189.365C209.394 178.206 213.418 165.949 214.998 153.27C216.52 141.006 216.503 128.603 214.948 116.347C214.651 115.753 214.393 115.14 214.175 114.513C213.896 113.803 213.617 112.981 213.337 112.097L211.513 106.127C210.251 101.988 208.593 97.9811 206.563 94.1599L207.269 93.6827C206.511 92.7311 205.867 91.6945 205.35 90.5939C205.058 89.9983 204.782 89.362 204.504 88.7138C204.225 88.0655 203.906 87.4014 203.62 86.7175L202.771 84.6516L201.835 82.642C201.268 81.3662 200.585 80.1454 199.794 78.9951C199.18 77.5496 198.56 76.0802 197.842 74.6698C197.856 74.1071 198.388 74.4886 199.223 75.2892C200.059 76.0897 200.931 77.4044 201.891 78.6628C203.681 81.158 205.427 83.4513 205.211 81.0858C204.247 78.8662 203.028 76.7656 201.579 74.8259C200.907 73.9153 200.179 73.0914 199.474 72.2624C198.77 71.4333 198.067 70.6662 197.321 69.9333L195.156 67.7188C194.437 66.9925 193.699 66.2952 192.998 65.5399C191.53 64.0229 190.173 62.4026 188.937 60.6915C187.445 59.1636 186.307 58.1181 185.403 57.345C184.634 56.7726 183.822 56.2593 182.974 55.8097C182.318 55.4303 181.742 55.1329 181.05 54.7613C180.136 54.3201 179.246 53.8288 178.386 53.2898C176.826 53.1694 179.247 54.9551 178.225 55.414C174.47 52.7126 171.533 50.7905 169.162 49.0063C166.791 47.2221 164.865 45.7638 162.931 44.3819C161.986 43.6507 161.005 42.9679 159.991 42.3359C158.905 41.6347 157.779 40.9955 156.62 40.4215C153.557 38.9172 150.295 37.8564 146.932 37.2712C146.166 37.4427 145.38 37.5134 144.596 37.4815C143.375 37.5982 142.038 37.7027 141.093 37.8838C139.177 38.3012 138.94 38.875 144.763 40.3674C146.681 40.472 148.63 40.5451 150.557 40.8092L152.325 41.7673L154.038 42.8242L152.321 42.2656L150.392 41.7655L148.398 41.2547C147.743 41.1112 147.099 41.0153 146.478 40.9141C144.048 40.461 142.239 40.457 142.633 41.0055C141.796 40.4312 140.86 40.0154 139.872 39.7787C138.549 39.5137 137.21 39.3318 135.864 39.2341C134.399 39.205 132.853 39.2059 131.352 39.2966C129.85 39.3873 128.381 39.5704 127.066 39.7699C125.75 39.9694 124.588 40.1852 123.668 40.311C123.036 40.4477 122.392 40.5213 121.746 40.5307C121.401 40.4939 121.415 40.3291 121.861 39.9709C122.759 39.3425 123.722 38.8118 124.733 38.3879L127.355 38.4634L129.536 38.5729C130.882 38.6279 132.043 38.6362 133.071 38.661C134.098 38.6514 135.123 38.5817 136.142 38.4522C137.173 38.3769 138.251 38.2293 139.531 38.0376C135.337 37.4779 131.111 37.1977 126.88 37.1989C122.846 37.2121 118.818 37.4955 114.821 38.047C107.285 39.1416 99.9607 41.3827 93.1033 44.6923C92.0915 45.7707 90.974 46.8225 89.9818 47.9339C89.5192 47.4129 87.6069 47.7921 85.0678 48.8425C82.0436 50.1768 79.1679 51.8243 76.4883 53.7579C74.2388 55.852 71.2762 58.4497 72.5027 58.3567C72.3992 58.7399 73.5435 57.8688 75.2318 56.5187L78.1618 54.4007C79.2435 53.6428 80.3408 52.9561 81.4406 52.2813C85.7441 49.715 88.9637 48.3546 84.4747 52.7024C77.7122 56.9446 71.4069 61.8727 65.6593 67.4081C60.1683 72.7078 55.6242 78.0624 52.0414 82.1631C53.0047 80.461 53.8961 78.8865 54.8056 77.3951L57.6008 73.0556C58.5325 71.6091 59.4643 70.1626 60.3753 68.6211C60.8692 67.8545 61.3552 67.0522 61.8454 66.2117C62.3356 65.3712 62.8367 64.4662 63.3854 63.5508C72.6096 52.0842 84.6601 43.203 98.3551 37.7783C111.951 32.4107 126.547 30.0419 141.141 30.8347C141.611 31.3913 143.651 32.0539 145.273 32.6333C146.895 33.2126 148.044 33.9075 146.854 34.1668C147.652 34.5213 148.484 34.7942 149.338 34.9813L152.574 35.9303C153.624 36.2168 154.643 36.6027 155.618 37.083C156.343 37.3728 156.989 37.8285 157.504 38.4133C168.213 41.5106 178.103 46.9275 186.468 54.2777C190.63 57.9028 194.457 61.8928 197.905 66.1999C201.072 70.1757 203.939 74.3815 206.48 78.7824C206.178 75.8512 208.041 78.1067 210.3 81.7807C212.559 85.4546 214.845 90.6274 216.318 92.9804C216.757 95.5708 217.789 98.8778 218.803 102.388C219.367 104.118 219.769 105.908 220.29 107.672C220.812 109.436 221.122 111.147 221.492 112.733C222.071 113.328 222.861 117.297 223.399 116.222C223.141 115.035 222.924 114.038 222.727 113.135C222.531 112.233 222.509 111.392 222.334 110.585L222.037 107.963C221.835 107.037 221.696 105.998 221.442 104.773C222.146 105.406 222.633 106.243 222.836 107.167C223.24 108.589 223.52 110.042 223.67 111.512C224.115 114.873 224.21 118.856 224.59 122.604L223.126 118.918C223.82 125.324 223.717 131.791 222.819 138.173C222.08 144.627 220.999 150.769 220.849 156.261C221.427 154.792 222.004 153.323 222.474 151.816C222.944 150.308 223.516 148.816 223.919 147.286C223.404 154.513 221.907 161.637 219.467 168.463C217.217 175.308 214.526 181.44 213.238 186.459C214.513 184.22 215.636 181.898 216.599 179.509C217.579 176.97 218.588 174.388 219.323 172.039L220.459 168.782C220.734 167.905 221.054 167.043 221.417 166.198C222.051 164.816 222.628 163.97 223.171 164.174C223.72 164.577 223.268 167.424 222.346 170.746C221.83 172.388 221.284 174.173 220.604 175.801C219.924 177.429 219.244 178.945 218.658 180.093C215.99 185.014 213.515 189.62 211.115 194.059C208.716 198.499 206.272 202.675 203.534 206.592C202.253 208.612 200.745 210.445 199.321 212.322C198.557 213.222 197.779 214.113 196.997 214.992L195.813 216.307L194.515 217.56C191.129 220.924 187.236 223.74 182.979 225.904Z" fill="#6B705D"/>
<path d="M207.452 206.895C209.432 204.293 211.097 201.467 212.414 198.477C213.027 197.11 213.442 195.663 213.647 194.179C214.014 191.799 214.605 189.705 218.273 181.644C218.377 182.865 219.643 181.694 220.993 179.36C221.661 178.195 222.426 176.785 223.097 175.283C223.767 173.782 224.341 172.239 224.833 170.776C225.823 165.015 227.789 158.356 228.505 153.288C228.88 151.577 229.428 150.886 229.767 151.471C230.107 152.056 230.313 153.976 229.681 157.372C229.318 158.396 229.011 159.445 228.679 160.5C228.348 161.555 227.995 162.626 227.672 163.717C227.072 165.887 226.322 168.052 225.715 170.361C224.336 174.79 222.952 179.369 221.159 183.789C219.51 188.189 217.521 192.456 215.211 196.55C214.027 198.499 212.833 200.401 211.546 202.161C210.289 203.829 208.922 205.41 207.452 206.895Z" fill="#6B705D"/>
<path d="M191.778 214.5C192.566 213.706 193.224 213.065 193.779 212.522C194.258 212.073 194.767 211.659 195.304 211.282C196.031 210.797 196.799 210.376 197.599 210.023C198.394 209.672 199.132 209.205 199.79 208.638C200.273 208.199 200.724 207.727 201.141 207.225C201.723 206.484 202.262 205.711 202.756 204.908C202.547 205.753 202.215 206.563 201.771 207.312C201.302 207.98 200.764 208.598 200.165 209.154L197.757 211.494C196.771 212.405 195.612 213.553 194.208 215.065L196.816 210.953C195.094 212.148 193.526 213.422 191.778 214.5Z" fill="white"/>
<path d="M226.723 151.002C227.064 148.105 227.659 143.337 228.148 139.114C228.405 137.031 228.627 135.13 228.945 133.668C229.262 132.206 229.533 131.277 229.935 131.115C230.039 130.221 230.948 131.702 230.517 128.351C230.407 129.619 230.423 131.642 230.322 133.866C230.22 136.089 230.101 138.577 229.711 140.963C229.47 143.155 229.054 145.325 228.468 147.451C228.229 148.774 227.624 150.003 226.723 151.002Z" fill="#6B705D"/>
<path d="M214.3 173.879C215.089 170.859 216.043 167.854 217.243 163.289C216.965 164.817 216.769 166.551 216.367 168.367C215.934 170.29 215.238 172.144 214.3 173.879Z" fill="white"/>
<path d="M224.448 143.191C223.797 143.693 223.772 142.492 223.959 140.947C224.03 140.185 224.155 139.325 224.264 138.568C224.373 137.81 224.377 137.138 224.291 136.746L224.799 133.352C224.959 135.073 225.031 136.8 225.016 138.528C225.007 140.099 224.817 141.663 224.448 143.191Z" fill="#6B705D"/>
<path d="M221.057 93.6766C220.483 91.613 220.36 91.105 220.647 91.2788C221.189 91.886 221.643 92.5655 221.997 93.2978C223.023 95.0889 223.992 96.7309 222.315 91.8359C223.017 93.6851 223.79 95.5188 224.45 97.4022L223.244 100.052C222.899 98.9835 222.59 97.9068 222.209 96.8456L221.057 93.6766Z" fill="#6B705D"/>
<path d="M217.367 80.9129C216.546 79.8523 215.803 78.7342 215.142 77.5673C214.205 76.0258 213.35 74.4351 212.584 72.8022C213.214 73.3489 213.804 73.9415 214.428 74.5146C214.989 75.272 215.428 76.1118 215.73 77.004C216.185 78.343 216.732 79.6491 217.367 80.9129Z" fill="#6B705D"/>
<path d="M217.923 92.8545C215.965 89.3016 217.184 89.4589 216.44 86.9597C217.699 88.1032 219.556 96.6277 217.923 92.8545Z" fill="#6B705D"/>
<path d="M188.241 66.8248C189.219 67.2721 190.112 67.8855 190.88 68.6376C191.331 69.0492 191.802 69.4938 192.262 70.003C192.722 70.5121 193.164 71.0502 193.627 71.6332L195.04 73.4271L196.437 75.3738L199.335 79.406C197.708 77.253 195.95 75.2022 194.07 73.2654C193.217 72.3817 192.358 71.4744 191.454 70.4152C190.55 69.3561 189.426 68.2579 188.241 66.8248Z" fill="#6B705D"/>
<path d="M47.7275 208.902C45.9934 205.872 43.9648 203.019 41.6708 200.385C41.813 201.038 41.9552 201.691 42.1901 202.311L44.8905 205.665C45.8048 206.772 46.7972 207.837 47.7275 208.902Z" fill="#6B705D"/>
<path d="M88.156 242.826C92.5771 242.746 85.7193 240.969 80.0429 236.087C75.9129 233.554 71.7572 230.903 67.6563 228.103C63.6033 225.342 59.8463 222.172 56.4447 218.644C54.8452 217.425 53.3187 216.141 51.7948 214.869C56.2847 220.811 61.5058 226.167 67.3355 230.809C73.6092 235.866 80.6331 239.92 88.156 242.826Z" fill="#6B705D"/>
<path d="M98.224 237.189C96.801 236.379 95.0866 235.721 93.4001 235.019C91.7136 234.316 89.9873 233.66 88.35 232.898C85.4202 231.719 82.58 230.33 79.8519 228.742C83.5166 231.221 87.3768 233.399 91.3947 235.256C94.8479 236.864 98.3987 238.254 102.026 239.42C102.824 239.246 99.7278 237.968 98.224 237.189Z" fill="white"/>
<path d="M25.4407 120.601C24.3798 127.495 23.8585 134.46 23.8815 141.434C23.8778 148.741 25.1367 155.993 27.6029 162.871C26.8845 156.71 27.2251 156.499 26.7566 146.964C28.0358 150.459 28.7202 154.143 28.7816 157.864C28.9018 159.79 28.973 161.777 29.2144 163.801C29.3219 164.81 29.4345 165.842 29.6212 166.871C29.8079 167.9 30.0711 168.937 30.2987 169.982C29.0898 163.057 32.1754 171.787 34.3094 177.291C36.218 183.944 38.9181 190.345 42.3519 196.357C46.2747 203.307 50.9705 209.793 56.3504 215.692C56.9713 216.253 57.7434 216.993 58.6484 217.828L61.5838 220.658L64.9462 223.731C66.1094 224.721 67.3203 225.701 68.4716 226.694C73.1194 230.345 77.24 232.606 76.5432 230.781C78.4806 232.063 80.0112 233.023 81.2687 233.93C81.8927 234.391 82.4495 234.829 82.9628 235.24C83.4761 235.65 83.9672 236.016 84.4609 236.393C85.398 237.147 86.2543 237.93 87.2918 238.687C88.5063 239.515 89.7699 240.27 91.0756 240.947C96.1993 242.318 100.884 243.847 105.542 245.257C110.201 246.668 114.875 248.037 119.677 249.019C124.632 250.085 129.696 250.568 134.765 250.458C140.276 250.241 145.708 249.058 150.81 246.963C150.29 247.835 152.821 247.495 155.979 246.708C157.548 246.242 159.308 245.734 160.899 245.139L165.017 243.496L168.892 241.769C170.325 241.134 171.814 240.299 173.395 239.545C176.442 237.908 179.373 236.064 182.167 234.028C187.291 230.188 190.21 226.817 187.46 227.416C184.391 228.781 180.595 231.846 176.139 234.856C171.683 237.866 166.511 240.683 161.524 241.658C160.465 241.888 159.596 242.078 158.904 242.166C158.385 242.238 157.861 242.282 157.337 242.296C156.625 242.289 156.529 242.136 156.907 241.867C157.633 241.447 158.384 241.071 159.156 240.743C160.289 240.223 161.632 239.632 163.133 238.969C164.634 238.306 166.203 237.492 167.743 236.722C169.283 235.951 170.758 234.995 171.956 234.2C174.442 232.502 176.149 231.123 175.876 230.56C174.975 231.403 173.933 231.481 172.437 231.944C170.093 232.679 167.859 233.73 165.799 235.068C169.112 233.103 170.345 232.126 170.408 231.727C170.47 231.327 169.406 231.534 168.127 231.788C165.592 232.34 162.247 233.069 165.413 230.775C157.489 233.894 153.654 234.43 150.888 234.784C149.585 234.878 148.278 234.881 146.975 234.791C145.615 234.614 144.066 234.43 141.922 234.088C137.179 235.208 135.527 235.867 134.705 236.73C133.883 237.593 133.926 238.304 132.525 238.97C127.64 239.776 122.645 239.596 117.834 238.439C113.314 237.434 109.133 236.156 104.638 235.095C108.476 234.172 104.907 232.724 99.5084 230.492C96.7684 229.36 93.6143 228.045 90.5964 226.439L88.3412 225.301L86.2237 224.109C85.5386 223.711 84.8136 223.359 84.2408 222.961L82.4824 221.814C76.9177 217.903 75.6307 217.661 74.119 217.418C72.6074 217.175 70.9327 217.043 65.7993 211.62C63.8332 208.317 66.85 210.719 69.7607 212.635C72.6714 214.55 75.2919 216.106 72.4922 212.239C70.6842 210.978 69.0144 209.551 67.2876 208.149C63.4387 205.99 59.7092 204.552 55.8361 200.794C53.9615 198.255 51.4874 194.28 51.9242 193.824C52.5005 194.731 53.2235 195.535 54.0638 196.206C54.5693 196.581 54.8509 196.557 54.9358 196.203C54.9666 195.53 54.8461 194.859 54.5831 194.24C54.1982 192.996 53.7448 191.775 53.2252 190.581C52.1664 189.181 50.9855 187.878 49.6963 186.686C50.2584 189.897 50.1734 190.823 49.583 190.23C48.3966 188.546 47.4325 186.716 46.7141 184.786L45.7747 182.591L44.8585 180.216L43.9097 177.749L43.0298 175.255C42.3863 173.617 41.8602 172.003 41.2844 170.561C40.7086 169.12 40.1664 167.833 39.6071 166.81C37.7912 162.591 36.6751 158.105 36.3027 153.527C36.2506 152.298 36.3078 151.066 36.4735 149.847C36.6545 148.91 36.8946 147.985 37.1922 147.078C37.4671 146.223 37.7302 145.37 38.0082 144.414C38.3374 143.26 38.5728 142.082 38.712 140.89C39.1536 136.554 39.3702 132.199 39.3608 127.841C38.3307 129.694 37.7987 129.599 37.5872 128.227C37.4679 127.262 37.427 126.29 37.465 125.319C37.504 124.067 37.6719 122.662 37.7942 121.106C38.1751 117.989 38.8277 114.402 39.5729 111.068C40.3181 107.735 41.0658 104.7 41.4682 102.597C43.8772 95.8547 45.857 93.782 48.9254 89.7809C49.364 87.8449 51.8462 82.9269 51.6885 81.9167C49.6325 82.5111 47.7304 83.5449 46.1144 84.9463C45.0586 85.8229 43.9385 86.8628 42.7331 88.0829C41.449 89.4224 40.2362 90.8281 39.0995 92.2941C32.9497 100.443 28.2815 109.604 25.3079 119.361C25.3337 120.052 25.3429 120.609 25.4407 120.601Z" fill="#6B705D"/>
<path d="M105.181 28.8177C54.7125 39.8097 22.3404 87.933 32.8757 136.304C43.4109 184.675 92.864 214.977 143.332 203.985C193.801 192.993 226.173 144.87 215.638 96.4985C205.102 48.1274 155.649 17.8257 105.181 28.8177Z" fill="#6B705D"/>
<path d="M86.0446 43.7674L86.3184 43.7078C86.6123 43.5692 86.9022 43.4687 87.1987 43.342C87.883 42.2478 89.9719 41.4198 92.8245 40.5498C92.7806 40.3479 92.4204 40.2398 93.337 39.7542C97.869 38.5806 95.5169 38.9436 98.5813 37.443C97.6923 37.8022 96.765 38.0584 95.8176 38.2066C97.8324 37.3823 99.9124 36.7427 101.979 36.0438C101 35.8965 100.15 35.6588 101.114 34.9888C100.683 34.6722 100.922 34.1102 101.338 33.4975C101.753 32.8848 102.399 32.2465 102.706 31.7072C101.495 31.8715 100.518 32.0221 100.05 32.0494C100.098 31.641 101.189 31.1546 102.59 30.7749C102.429 30.702 102.258 30.6513 102.083 30.6241C102.258 30.6513 102.429 30.702 102.59 30.7749C103.505 30.5133 104.536 30.264 105.5 30.054C104.944 30.0757 104.375 30.1 104.601 29.8767L100.565 30.8676C100.419 30.8249 100.532 30.7133 100.754 30.5902L99.7808 31.1007L100.624 31.0788C100.941 31.159 100.436 31.4181 99.9458 31.6866C99.3348 31.9139 98.6868 32.0255 98.0351 32.0157C97.3741 32.3586 96.691 32.6566 96.0378 33.0351C95.4539 33.8463 101.668 31.8089 98.4344 33.3339L97.3331 33.4867C95.7815 34.0437 94.3018 34.7834 92.9256 35.6903C91.1242 35.5479 88.8944 37.9611 88.2419 37.0834C86.7793 37.6383 85.2107 38.2784 83.6797 39.0346C82.1488 39.7909 80.5118 40.6324 78.984 41.5745L76.6482 42.9289L74.3627 44.2847C72.8405 45.1385 71.3805 45.9913 69.9039 46.7108C69.4463 47.9297 70.2286 49.0029 68.7099 51.3607C68.2384 51.6002 67.5309 52.0154 67.6406 51.7179C67.2328 52.1923 66.8301 52.6904 66.4589 53.2189C67.1421 52.5158 67.9544 51.9504 68.8516 51.5537C66.8046 53.6037 70.28 51.2426 70.2991 51.6737C69.3685 52.6101 68.3841 53.4711 67.4969 54.4354L67.943 54.2512C73.4926 50.0684 79.5491 46.6016 85.9685 43.9332L86.0446 43.7674Z" fill="#6B705D"/>
<path d="M30.0554 145.623L30.8193 145.295C31.1224 146.286 31.5233 147.269 31.9124 148.253C32.3014 149.238 32.6692 150.24 33.0939 151.217C33.9791 153.163 34.8006 155.16 35.8406 157.073C37.822 161.03 40.0889 164.838 42.6235 168.466C47.9109 176.088 54.2794 182.903 61.53 188.698C77.1497 201.193 96.1904 208.692 116.162 210.213C137.265 211.807 158.35 206.824 176.505 195.952C185.631 190.427 193.799 183.461 200.689 175.326C207.523 167.254 212.938 158.086 216.702 148.211C217.421 149.223 218.116 150.241 218.817 151.282C222.529 139.936 224.127 128.01 223.533 116.094C223.01 104.806 220.177 93.7468 215.209 83.5966C215.565 84.887 215.975 86.1408 216.269 87.4323L217.114 91.3146C215.307 88.0522 212.701 82.2153 209.27 76.3094C207.589 73.3427 205.663 70.3923 203.797 67.5528L200.96 63.5696L198.301 60.0075C198.748 60.1093 199.175 60.2401 199.624 60.3538C202.088 63.3114 203.167 64.8299 203.637 65.3866C204.108 65.9432 203.958 65.5406 203.665 64.8832C203.103 63.563 202.021 61.1126 204.734 63.0958L206.644 65.1669L206.057 63.616L204.135 61.5474C204.703 61.5231 205.034 60.9786 206.681 63.0449C205.995 62.0129 205.339 60.9495 204.587 59.9568C203.058 56.0865 202.422 53.9119 202.643 52.5208C202.864 51.1296 203.808 50.6006 205.082 50.2111C204.243 49.4488 203.77 49.9124 202.75 49.6371C202.005 49.3847 201.324 48.9729 200.755 48.4303C200.326 48.0636 199.844 47.5715 199.251 46.967C198.658 46.3624 197.983 45.6639 197.215 44.774L198.646 45.0469L196.542 43.5154C195.836 43.0225 195.093 42.5874 194.385 42.0826L192.155 40.7154L189.925 39.4102L188.469 37.5885L186.916 35.8376L184.641 34.6667C183.906 34.3292 183.249 33.9999 182.538 33.6572C181.088 32.9091 179.686 32.0724 178.339 31.1519L176.564 31.9863C174.837 30.8701 172.936 29.9286 171.006 28.9066C169.075 27.8845 167.032 27.0361 164.919 26.2651C160.628 24.5962 156.217 23.2498 151.724 22.2373C147.24 21.2236 142.705 20.4471 138.139 19.911C135.896 19.6906 133.686 19.3885 131.503 19.2671C130.412 19.1814 129.337 19.0549 128.277 18.9996L125.115 18.7929C123.959 19.196 122.75 19.4299 121.526 19.4875C120.04 19.5875 118.307 19.5917 116.391 19.7231C112.056 19.8232 107.76 20.5826 103.653 21.9751L107.841 22.9408C112.892 23.2336 120.854 22.4693 129.645 22.93C134.116 23.1337 138.57 23.6216 142.979 24.3906C147.135 25.1499 151.22 26.2526 155.193 27.6873L154.337 28.3959C152.745 28.0711 151.349 27.9025 149.868 27.7402C148.199 27.5226 146.552 27.1615 144.945 26.661L143.628 28.0547C146.349 31.3916 152.672 32.6011 159.099 34.0615C165.527 35.5218 172.02 37.2289 174.139 39.0557C174.976 39.6478 175.735 40.3432 176.397 41.1255C176.793 41.6239 176.867 41.9062 176.723 42.0494C176.427 42.3501 175.311 42.0337 174.029 41.6414C171.466 40.8688 168.395 39.6475 170.778 40.8571C167.806 39.8628 166.84 39.9489 166.985 40.6138C167.13 41.2786 168.564 42.4834 170.239 44.1082C173.791 47.1898 178.591 51.8274 179.807 54.1491C181.816 57.0195 184.64 60.3093 187.609 64.152C190.827 68.2597 193.77 72.5747 196.419 77.0689C199.191 81.7905 201.498 86.7685 203.31 91.9335C204.939 96.5709 206.076 101.367 206.701 106.242C208.592 113.922 208.854 121.912 207.471 129.702C206.75 133.831 205.655 137.886 204.201 141.818C201.132 149.774 196.737 157.156 191.202 163.651C189.895 165.266 188.433 166.741 187.049 168.286C185.665 169.831 184.158 171.154 182.634 172.456C181.11 173.758 179.584 174.998 178.097 176.242C176.61 177.487 175.051 178.572 173.477 179.587C170.416 181.733 167.301 183.518 164.35 185.193C161.415 186.603 158.206 188.583 154.645 190.379C151.034 192.317 147.284 193.986 143.426 195.371C135.734 198.178 127.917 198.924 123.711 196.445C119.618 196.317 115.538 195.909 111.501 195.224C107.484 194.528 103.521 193.55 99.6429 192.298L100.39 191.55C88.7628 188.302 77.8669 182.866 68.2886 175.536C63.5405 171.823 59.2295 167.584 55.438 162.902C51.8175 158.41 48.7514 153.5 46.3055 148.277C45.2801 146.088 44.4777 144.236 43.6675 142.634C42.8573 141.032 42.327 139.742 41.8014 138.588C40.909 136.208 40.4648 134.34 41.3708 131.917C40.1674 121.798 40.213 111.568 41.5067 101.457C42.88 91.1978 46.4197 81.3436 51.8917 72.5456C51.159 72.1581 51.9848 69.3667 49.58 72.1786C47.2159 76.7227 44.4429 81.3931 42.1793 85.0821C41.2392 86.649 40.1911 88.1488 39.0425 89.5707C38.1599 90.6707 37.3577 91.2807 36.8045 91.2022C37.3098 89.9729 37.7384 88.7355 38.3255 87.5381C37.5796 88.5213 36.9563 89.5525 36.2684 90.5728L35.2741 92.1324L34.3733 93.7214C34.1718 95.2576 33.9848 96.8031 33.8981 98.3515C33.0979 99.3714 32.5555 99.8005 32.1829 99.807C31.0086 103.632 29.7376 107.241 28.7035 111.023C27.5674 114.97 26.7781 119.007 26.3445 123.09C27.2373 129.25 28.2605 136.066 30.0554 145.623Z" fill="#6B705D"/>
<path d="M77.4213 47.0508C41.1462 54.9515 19.1453 95.3597 28.281 137.305C37.4167 179.25 74.2294 206.849 110.505 198.948C146.78 191.047 168.781 150.639 159.645 108.694C150.509 66.7486 113.696 39.1501 77.4213 47.0508Z" fill="#6B705D"/>
<path d="M52.2831 50.5859C50.7816 51.8208 48.6709 53.3499 47.0126 54.4946C45.3543 55.6392 44.0631 56.2935 44.0735 55.4829L43.023 55.5252C45.2716 53.478 47.6926 51.6276 50.2592 49.9946C52.9448 48.4148 54.633 47.9227 52.2831 50.5859Z" fill="#6B705D"/>
<path d="M55.8503 54.1989C53.0399 55.6068 54.8442 54.0449 55.0746 53.3854L56.9047 52.2282L58.8031 51.1556C60.2098 50.9736 57.2141 53.0189 55.8503 54.1989Z" fill="white"/>
<path d="M60.5226 63.8013C60.8522 63.6549 61.2016 63.5415 61.5364 63.4188C60.4225 63.8781 59.3763 64.4866 58.4269 65.2277C58.0151 64.8822 59.2242 63.1639 61.0879 62.161C60.9476 62.7761 59.3312 63.9986 60.5226 63.8013Z" fill="#6B705D"/>
<path d="M23.9714 107.328C25.5476 108.44 28.3888 104.712 31.0054 100.412C31.7944 101.21 32.586 101.982 33.3805 102.73C31.3188 105.915 31.1402 113.166 31.3283 118.609C31.6469 119.672 31.8288 118.388 32.0799 117.538C32.331 116.687 32.5236 116.198 32.8648 118.909C32.4615 119.519 31.7696 119.147 31.5081 120.237C31.9182 122.634 32.7705 123.17 33.3856 124.392C33.8185 125.23 34.1309 126.124 34.3136 127.05C34.5877 128.308 34.8437 130.056 35.1181 132.632C34.9037 133.823 34.6613 135.057 34.4691 136.293C36.5531 145.113 40.2749 153.464 45.442 160.913C50.3833 168.016 56.1347 174.521 62.5808 180.299C64.9344 181.178 67.1939 182.29 69.3256 183.617C71.9194 185.078 74.6802 186.222 77.5484 187.024L77.3371 187.829C78.1896 187.784 79.0419 187.916 79.8403 188.217C80.77 188.519 81.6807 188.877 82.5674 189.289C83.4942 189.709 84.4448 190.124 85.3256 190.504C86.2198 190.844 87.1439 191.101 88.0859 191.271C89.0733 191.739 90.0705 192.082 91.1013 192.579C91.6275 193.335 89.3054 193.206 87.1541 193.003C85.0029 192.8 83.0234 192.585 84.2124 193.98C87.2063 195.164 90.4474 195.594 93.6491 195.232C96.5321 194.835 99.4523 194.788 102.346 195.091C104.145 195.164 105.939 194.845 107.604 194.158C108.569 193.724 109.242 193.266 110.999 192.573C111.67 191.531 109.64 192.06 109.8 191.018C113.969 189.748 118.216 188.748 122.514 188.025C126.698 187.408 130.592 185.522 133.668 182.624C133.588 182.256 135.052 180.109 135.529 178.749C136.006 177.389 135.615 176.852 132.187 179.315C131.356 180.367 130.56 181.522 129.643 182.518C128.708 182.808 127.82 183.139 126.883 183.355C128.385 182.332 129.804 181.191 131.127 179.944C132.398 178.797 133.132 177.704 132.55 177.607C133.782 177.538 135.282 176.353 136.639 174.801C137.951 173.198 139.086 171.458 140.023 169.612C140.451 168.773 140.837 168.03 141.151 167.464C141.325 167.036 141.573 166.642 141.882 166.297C142.237 165.984 142.448 166.721 142.202 169.2C140.805 170.599 139.486 172.073 138.252 173.617C137.809 174.198 137.423 174.819 137.097 175.472C136.755 176.131 136.416 176.864 136.021 177.684C144.797 169.207 151.022 159.494 153.963 149.353C153.808 148.242 153.565 147.126 153.354 146.041C154.794 146.187 156.857 141.348 157.736 136.281C157.676 134.056 157.892 131.273 157.217 131.893C156.819 131.383 156.446 135.966 155.569 139.44C155.351 140.724 154.897 141.957 154.229 143.077C153.775 143.511 153.506 142.961 153.251 140.703C154.481 135.16 155.281 129.531 155.643 123.866C156.038 118.408 156.036 113.36 156.233 109.4C156.53 110.765 156.807 112.035 157.073 113.258C157.339 114.481 157.519 115.648 157.849 116.82C158.047 118.069 158.316 119.306 158.656 120.524C159.002 121.917 159.422 123.291 159.914 124.64C161.11 135.18 159.879 145.856 156.314 155.854C152.795 165.802 147.585 175.073 140.913 183.259C139.813 183.522 138.768 183.977 137.827 184.603C136.709 185.195 135.751 185.49 136.047 184.618C134.26 185.343 130.66 188.962 128.724 188.488C122.409 193.369 114.944 196.549 107.046 197.724C99.5299 198.806 91.8747 198.389 84.5241 196.498C86.1178 198.091 83.9893 198.107 80.9299 197.455C77.8704 196.803 74.0405 195.362 72.0528 194.937C71.2036 194.25 70.3155 193.613 69.393 193.029L66.1495 191.074C63.8675 189.755 61.529 188.35 59.6134 186.939C58.9381 186.986 56.5469 185.281 56.673 186.261C57.3145 186.677 57.9329 187.128 58.5255 187.611C59.0626 188.016 59.5325 188.399 60.0287 188.788C61.0696 189.771 62.1691 190.69 63.3213 191.541C62.2163 191.906 60.5237 190.832 58.6899 189.167C56.856 187.502 54.8862 185.27 52.9064 183.45L55.6388 184.546C52.202 181.374 49.2373 177.727 46.8343 173.717C44.2675 169.775 42.0386 165.895 39.3086 162.921C39.9283 165.136 40.6789 167.323 41.4942 169.521C38.2752 165.361 35.7085 160.738 33.882 155.808C31.898 150.992 30.4005 146.406 28.3826 143.152C29.2118 146.851 30.4146 150.455 31.9726 153.911C32.6571 155.565 33.238 157.03 33.5644 158.128C33.8908 159.226 33.8317 159.985 33.2836 160.216C32.7355 160.448 31.4125 158.609 30.3307 156.333C29.2653 154.12 28.4534 151.794 27.9103 149.399C27.1077 145.37 26.2295 141.681 25.3321 138.134C24.4347 134.586 23.5658 131.169 22.9691 127.742C21.7275 121.011 21.3906 114.083 23.9714 107.328Z" fill="#6B705D"/>
<path d="M19.8668 129.699C20.1152 132.079 20.6868 134.415 21.5658 136.641C21.9808 137.69 22.5757 138.659 23.3239 139.504C24.5062 140.925 25.4246 142.279 27.3044 148.449C26.4563 147.875 26.2201 149.195 26.5003 151.111C26.6794 152.223 26.9193 153.325 27.2192 154.411C27.573 155.578 27.9863 156.731 28.4095 157.759C30.8221 161.337 32.8304 166.035 34.8922 169.205C35.4841 170.32 35.4317 171.052 34.8614 170.953C34.2912 170.853 33.1699 169.941 31.8526 167.728C30.7585 164.708 29.432 161.652 27.9829 158.548C26.5338 155.444 25.0785 152.254 23.8323 148.993C21.2193 142.549 19.3598 135.729 19.8668 129.699Z" fill="#6B705D"/>
<path d="M26.1626 117.732C26.3878 119.538 26.0109 121.368 25.0901 122.94C24.5527 123.965 23.9848 125.021 24.7255 128.193C24.335 127.701 24.0508 127.133 23.8907 126.526C23.7306 125.919 23.698 125.285 23.795 124.665C24.0058 122.653 24.1024 120.631 24.0841 118.608C24.3427 119.795 24.6965 120.962 25.0177 122.036C25.3838 120.625 25.7779 119.172 26.1626 117.732Z" fill="white"/>
<path d="M37.4576 169.305C38.0691 170.167 38.8535 171.364 39.7274 172.629C40.6013 173.894 41.5538 175.29 42.3165 176.616C43.982 179.226 45.3225 181.545 44.7997 182.293C45.1578 182.85 43.7755 182.628 45.718 184.22C43.7368 181.819 41.8812 179.318 40.1584 176.726C38.2823 173.665 36.9781 170.653 37.4576 169.305Z" fill="#6B705D"/>
<path d="M34.9302 150.145C35.446 151.14 35.9857 152.129 36.5325 153.266C37.0794 154.403 37.7074 155.684 38.4731 157.196C37.2122 155.356 35.3862 153.155 34.9302 150.145Z" fill="white"/>
<path d="M43.1825 172.063C43.6738 170.712 45.5709 174.614 46.4216 175.486L47.653 177.705C46.6994 176.888 45.8129 175.995 45.0021 175.037C44.2236 174.161 43.6074 173.154 43.1825 172.063Z" fill="#6B705D"/>
<path d="M68.718 198.001C71.546 199.536 69.847 199.235 68.3054 198.912C66.7637 198.588 65.3743 198.219 68.8139 200.044C67.4452 199.484 66.0558 198.829 64.7455 198.195L64.291 195.707C65.7166 196.528 67.2313 197.243 68.718 198.001Z" fill="#6B705D"/>
<path d="M77.2174 203.251C78.2171 203.353 79.2099 203.515 80.1904 203.735C81.2818 203.994 82.514 204.385 84.097 204.898L82.1573 205.209C81.4347 205.119 80.7398 204.876 80.1194 204.496C79.181 204.017 78.2115 203.601 77.2174 203.251Z" fill="#6B705D"/>
<path d="M71.1153 196.185C73.9864 197.003 73.1997 197.684 74.8302 198.759C73.5002 198.949 68.2945 195.084 71.1153 196.185Z" fill="#6B705D"/>
<path d="M99.4133 190.557C97.1806 192.212 92.5163 191.176 88.1005 190.708C89.933 190.843 91.7735 190.833 93.6048 190.678C95.2515 190.568 96.9469 190.51 99.4133 190.557Z" fill="#6B705D"/>
<path d="M97.718 37.83C100.297 38.51 102.956 38.8385 105.623 38.8067L104.319 37.9715L102.671 37.8455L101.015 37.7959C99.9112 37.8248 98.8332 37.7985 97.718 37.83Z" fill="#6B705D"/>
<path d="M58.2193 44.468C57.3005 45.9738 57.9256 45.9247 59.4332 45.3477C61.6094 44.3855 63.9004 43.7068 66.2497 43.3283C69.7302 42.135 73.2003 40.8942 76.7754 39.7922C80.3482 38.6759 84.0519 38.0323 87.7915 37.8779C89.2675 37.5564 90.7679 37.1177 92.2909 36.8979C86.6152 36.3209 80.8839 36.5967 75.2884 37.716C69.2394 38.9256 63.4572 41.2129 58.2193 44.468Z" fill="#6B705D"/>
<path d="M58.1852 54.9587C59.3423 54.4549 60.4659 53.8779 61.5493 53.2312C62.6646 52.6276 63.8493 51.8846 64.9926 51.2376C66.9438 50.0436 68.9939 49.0187 71.1204 48.1744C65.3919 49.9241 59.9655 52.5403 55.0308 55.9318C54.8667 56.552 56.9648 55.4235 58.1852 54.9587Z" fill="white"/>
<path d="M155.331 74.291C152.568 69.8754 149.455 65.688 146.021 61.769C142.412 57.6102 137.968 54.2528 132.977 51.913C136.427 55.0417 136.24 55.443 141.196 60.5689C138.615 59.4871 136.329 57.8063 134.53 55.6661C133.534 54.6396 132.528 53.5155 131.348 52.5041C130.227 51.3938 128.985 50.413 127.644 49.5801C131.765 52.8734 125.496 49.849 121.495 48.0219C117.052 45.3475 112.248 43.3201 107.229 42.0011C104.322 41.1975 101.362 40.5956 98.3713 40.1997C95.4019 39.856 92.4128 39.7093 89.4235 39.7608C86.9234 40.1313 81.595 40.3964 77.3031 41.3561C73.0112 42.3157 69.7652 43.6694 71.2255 44.4208C69.5833 44.9525 68.3024 45.3683 67.1887 45.6357C66.075 45.9032 65.1294 46.0843 64.2186 46.1956C62.1849 46.3826 60.1902 46.8716 58.3006 47.6462C55.3931 50.0073 52.3667 52.2188 49.2333 54.272C46.2325 56.2935 43.2647 58.2954 40.3462 60.5228C37.3791 62.8334 34.7013 65.4918 32.3706 68.4405C29.8913 71.6582 28.0688 75.3297 27.0066 79.2465C26.5994 78.4646 25.5548 80.0228 24.4362 82.1566C23.9237 83.2382 23.3946 84.4727 22.9214 85.6204L21.7959 88.6387C20.2023 93.1435 19.1027 97.807 18.5164 102.547C18.4066 103.703 18.3169 104.779 18.3085 105.714C18.303 106.497 18.3607 107.278 18.481 108.052C18.7396 109.239 19.1499 109.634 19.8885 108.79C21.0289 106.527 21.1184 102.988 21.7447 99.1083C22.3709 95.2287 23.1732 91.0124 25.2742 87.8935C27.0166 85.1885 27.735 84.7088 27.7343 85.3929C27.6728 86.0156 27.5386 86.6291 27.3345 87.2209L26.4507 90.2612C25.7555 92.5957 25.2154 94.9733 24.834 97.3784C24.5066 99.5389 24.5861 101.163 25.1336 101.33C25.0867 99.512 27.1263 99.0305 27.9163 93.7847C26.9281 99.3224 27.9607 98.3389 29.0384 96.7611C30.1161 95.1833 31.6109 93.1168 31.5024 95.9384C33.8982 90.2807 35.3864 87.9544 36.6743 86.3681C38.1918 84.7096 39.9497 83.2872 41.8893 82.1482C43.3549 79.031 43.574 77.69 43.305 76.7412C43.036 75.7925 42.4052 75.3579 42.5363 74.1852C44.1727 71.0257 46.5416 68.3012 49.4458 66.2386C52.0715 64.2118 54.7245 62.5396 57.1737 60.3895C56.7346 61.8655 57.1817 62.3154 58.151 62.1291C59.6436 61.6562 61.0711 60.9985 62.4001 60.1715C64.212 59.2172 66.3076 58.0768 68.4436 57.0645L70.0273 56.3216L71.5985 55.6933C72.602 55.2634 73.5761 54.9269 74.4507 54.6493C78.9791 53.4019 79.6329 52.6253 80.3575 51.6591C80.7766 51.0439 81.374 50.571 82.0697 50.3038C83.7113 49.7074 85.4486 49.4176 87.1947 49.4487C88.5195 49.8068 88.5096 50.2194 87.8937 50.54C86.9272 50.996 85.925 51.3723 84.8972 51.6653C82.5967 52.5518 80.6662 53.4199 83.9601 53.9461C84.6788 53.7089 85.4101 53.5122 86.1508 53.357C86.8888 53.1963 87.6377 52.971 88.3887 52.8696C91.2311 51.3801 93.7614 49.66 97.6325 49.1153C98.7348 49.3105 100.125 49.4553 101.215 49.7651C102.305 50.0749 103.117 50.3705 103.081 50.6024C98.6798 50.3173 99.8523 51.8652 103.872 53.6633C105.132 53.7155 106.395 53.6446 107.641 53.4518C105.875 51.8095 105.452 51.2425 106.079 51.1433C107.539 51.3112 108.959 51.7298 110.275 52.3806C112.248 53.1945 114.63 54.3421 116.844 55.4641C117.403 55.7403 117.959 56.0046 118.511 56.2452C119.062 56.4858 119.558 56.7631 120.069 56.9878C120.976 57.3817 121.91 57.7102 122.864 57.9708C125.965 59.1298 128.784 60.9317 131.134 63.2578C132.256 64.429 133.055 65.8699 133.454 67.4408C133.832 68.9745 134.417 70.4494 135.195 71.8246C135.817 72.898 136.531 73.9159 137.328 74.8668C138.216 76.0788 139.442 77.4159 140.886 79.0662C140.774 77.4616 141.232 77.1628 142.08 77.7366C143.386 78.8493 144.511 80.1561 145.418 81.611C148.111 85.3893 150.689 90.7596 152.482 93.2666C154.378 98.0768 153.995 100.212 154.02 103.875C154.821 105.093 155.901 108.85 156.685 109.301C157.833 108.013 158.655 106.469 159.083 104.799C159.764 102.318 160.129 99.7606 160.169 97.1886C160.227 89.5463 158.842 81.963 156.086 74.8355C155.708 74.5322 155.404 74.2253 155.331 74.291Z" fill="#6B705D"/>
</g>
<defs>
<clipPath id="clip0">
<rect width="208" height="231" fill="white" transform="translate(252.395 225.709) rotate(167.713)"/>
</clipPath>
</defs>
</svg>
