<?xml version="1.0" encoding="utf-8"?>
<!-- Generator: Adobe Illustrator 25.2.3, SVG Export Plug-In . SVG Version: 6.00 Build 0)  -->
<svg version="1.1" id="Layer_1" xmlns="http://www.w3.org/2000/svg" xmlns:xlink="http://www.w3.org/1999/xlink" x="0px" y="0px"
	 viewBox="0 0 511 512" style="enable-background:new 0 0 511 512;" xml:space="preserve">
<path d="M290,511h-82c-13.7,0-24.8-11.1-24.8-24.8V301.2h-47.8c-13.7,0-24.8-11.1-24.8-24.8v-79.2c0-13.7,11.1-24.8,24.8-24.8h47.8
	v-39.7c0-39.3,12.4-72.8,35.7-96.8C242.4,11.7,275.2-1,313.8-1l62.5,0.1c13.7,0,24.8,11.2,24.8,24.8v73.6
	c0,13.7-11.1,24.8-24.8,24.8l-42.1,0c-12.8,0-16.1,2.6-16.8,3.4c-1.2,1.3-2.5,5-2.5,15.2v31.4h58.3c4.4,0,8.6,1.1,12.3,3.1
	c7.9,4.4,12.8,12.7,12.8,21.7l0,79.2c0,13.7-11.1,24.8-24.8,24.8h-58.5v184.9C314.8,499.9,303.7,511,290,511z M376.2,29.1
	L376.2,29.1L376.2,29.1z"/>
</svg>
