<svg width="28" height="20" viewBox="0 0 28 20" fill="none" xmlns="http://www.w3.org/2000/svg">
<path d="M1.83859 0.220717C1.65996 0.218173 1.4826 0.251398 1.31683 0.318458C1.15106 0.385519 1.00018 0.485078 0.872961 0.611351C0.745743 0.737624 0.644723 0.888092 0.575772 1.05401C0.506821 1.21993 0.471313 1.39799 0.471313 1.57784C0.471313 1.75769 0.506821 1.93575 0.575772 2.10167C0.644723 2.26759 0.745743 2.41806 0.872961 2.54433C1.00018 2.6706 1.15106 2.77016 1.31683 2.83722C1.4826 2.90428 1.65996 2.93751 1.83859 2.93496H26.104C26.2827 2.93751 26.46 2.90428 26.6258 2.83722C26.7916 2.77016 26.9424 2.6706 27.0697 2.54433C27.1969 2.41806 27.2979 2.26759 27.3669 2.10167C27.4358 1.93575 27.4713 1.75769 27.4713 1.57784C27.4713 1.39799 27.4358 1.21993 27.3669 1.05401C27.2979 0.888092 27.1969 0.737624 27.0697 0.611351C26.9424 0.485078 26.7916 0.385519 26.6258 0.318458C26.46 0.251398 26.2827 0.218173 26.104 0.220717H1.83859ZM1.83859 8.36346C1.65996 8.36091 1.4826 8.39414 1.31683 8.4612C1.15106 8.52826 1.00018 8.62782 0.872961 8.75409C0.745743 8.88037 0.644723 9.03083 0.575772 9.19675C0.506821 9.36267 0.471313 9.54073 0.471313 9.72058C0.471313 9.90043 0.506821 10.0785 0.575772 10.2444C0.644723 10.4103 0.745743 10.5608 0.872961 10.6871C1.00018 10.8133 1.15106 10.9129 1.31683 10.98C1.4826 11.047 1.65996 11.0802 1.83859 11.0777H26.104C26.2827 11.0802 26.46 11.047 26.6258 10.98C26.7916 10.9129 26.9424 10.8133 27.0697 10.6871C27.1969 10.5608 27.2979 10.4103 27.3669 10.2444C27.4358 10.0785 27.4713 9.90043 27.4713 9.72058C27.4713 9.54073 27.4358 9.36267 27.3669 9.19675C27.2979 9.03083 27.1969 8.88037 27.0697 8.75409C26.9424 8.62782 26.7916 8.52826 26.6258 8.4612C26.46 8.39414 26.2827 8.36091 26.104 8.36346H1.83859ZM1.83859 16.5062C1.65996 16.5037 1.4826 16.5369 1.31683 16.6039C1.15106 16.671 1.00018 16.7706 0.872961 16.8968C0.745743 17.0231 0.644723 17.1736 0.575772 17.3395C0.506821 17.5054 0.471313 17.6835 0.471313 17.8633C0.471313 18.0432 0.506821 18.2212 0.575772 18.3872C0.644723 18.5531 0.745743 18.7035 0.872961 18.8298C1.00018 18.9561 1.15106 19.0556 1.31683 19.1227C1.4826 19.1898 1.65996 19.223 1.83859 19.2204H26.104C26.2827 19.223 26.46 19.1898 26.6258 19.1227C26.7916 19.0556 26.9424 18.9561 27.0697 18.8298C27.1969 18.7035 27.2979 18.5531 27.3669 18.3872C27.4358 18.2212 27.4713 18.0432 27.4713 17.8633C27.4713 17.6835 27.4358 17.5054 27.3669 17.3395C27.2979 17.1736 27.1969 17.0231 27.0697 16.8968C26.9424 16.7706 26.7916 16.671 26.6258 16.6039C26.46 16.5369 26.2827 16.5037 26.104 16.5062H1.83859Z" fill="black" fill-opacity="0.8"/>
</svg>
